<svg data-name="Layer 1" xmlns="http://www.w3.org/2000/svg" width="488" height="692.306"><path fill="#3f3d56" d="M0 627.759h488v2H0z"/><path d="M313.616 192.464s-20.74 3.453-31.397 1.516-31.8 9.056-31.8 9.056l-55.878 20.688S144 265.134 136.893 236.28C132.913 220.12 185 207.134 185 207.134l91.555-43.856 33.313-11.514z" fill="#ffb9b9"/><path d="M317.606 313.134l-14.606 14 2.606 61s3 80 2 83-19 125-19 125 21 10 40 4c0 0 19-90 19-116l22-91 34 104s2 70 6 93 4 26 4 26 32 9 40 0c0 0-4-118-7-130l-7-143z" fill="#2f2e41"/><path d="M296.606 596.134s-2-3-8 5-25 23-25 23-52 37-13 39 46-18 46-18 33-6 34-13-4-35-4-35zM415.606 614.134s-7 24-5 34-4 47 24 44 19-35 19-35l-9-41z" fill="#2f2e41"/><circle cx="376.106" cy="57.634" r="33" fill="#ffb9b9"/><path d="M356.606 75.134s10 35 2 48 54 2 58-10c0 0-20-22-17-43z" fill="#ffb9b9"/><path d="M372.606 122.134s27.375 1.85 40.687-13.075l35.617 15.222a18.685 18.685 0 0111.043 20.51l-18.347 101.343s8.394 64 4 107c-3.97 38.849-148 0-143-33 .536-3.536 1.03-7.152 1.486-10.79a851.217 851.217 0 0118.207-96.54c2.66-10.865-4.693-72.67-4.693-72.67l44.018-29.165s1.982 11.165 10.982 11.165z" fill="#003c3c"/><path d="M342.931 137.548l-8.368-8.6-61.291 34.515s17.955 31.362 25.025 31.46c2.71.037 34.866 1.61 42.703-8.789 12.61-16.734 1.931-48.586 1.931-48.586z" fill="#003c3c"/><path d="M367.999 36.04a131.948 131.948 0 0114.787-1.465c3.588-.153 7.326-.128 10.569 1.416 4.89 2.328 7.629 7.592 9.422 12.702s3.066 10.57 6.393 14.843c5.535-5.778 6.642-14.369 7.466-22.328.58-5.599 1.093-11.568-1.495-16.566-1.595-3.078-4.225-5.477-6.89-7.695C395.531 6.361 379.377-1.969 363 .408l-.384 2.529a45.156 45.156 0 00-8.353.525l.585 6.273-8.7.552-.333 6.537-8.798.305a10.193 10.193 0 003.07 6.628 12.392 12.392 0 01-4.52 2.04c1.468 5.68 2.892 11.372 4.407 17.038 1.117 4.174.917 7.862 5.394 5.825 3.41-1.551 5.715-6.483 9.162-8.521 4.06-2.4 8.865-3.378 13.469-4.098z" fill="#2f2e41"/><path d="M476.34 181.745l.484 35.243-10.152 101.008s5.476 53.403-11.074 55.147c-29.552 3.116-7.77-58.486-7.77-58.486l.48-59.582s3.157-23.621-2.284-32.986-9.238-30.045-9.238-30.045z" fill="#ffb9b9"/><path d="M448.606 127.134a18.678 18.678 0 0117.95 13.495c6.386 22.13 17.985 63.771 15.05 64.505-4 1-51 4-51 4zM83.626 296.796l.24.058a21.334 21.334 0 013.28 40.4 21.002 21.002 0 01-5.089 1.435 21.34 21.34 0 111.569-41.893z" fill="#003c3c"/><path d="M83.626 296.796a306.277 306.277 0 013.52 40.457 21.002 21.002 0 01-5.089 1.436 222.047 222.047 0 00-3.707-42.432 21.308 21.308 0 015.276.539z" fill="#e6e6e6"/><path d="M168.563 301.25l-73.204 2.972 2.062 24.232 72.752-10.973a4.99 4.99 0 004.275-5.514l-.099-.857 2.872-.119a2.52 2.52 0 002.39-2.88l-.017-.121a2.521 2.521 0 00-2.762-2.146l-3.051.325-.058-.502a4.99 4.99 0 00-5.16-4.416z" fill="#3f3d56"/><path d="M128.014 315.517a1.487 1.487 0 01-1.385 1.138l-5.258.218a1.495 1.495 0 01-1.526-1.22l-.533-2.905a1.489 1.489 0 011.307-1.748l5.32-.567a1.484 1.484 0 011.63 1.267l.471 3.255a1.494 1.494 0 01-.026.562zm-7.72-3.154a.495.495 0 00-.006.206l.533 2.906a.498.498 0 00.509.406l5.257-.217a.496.496 0 00.471-.567l-.47-3.255a.494.494 0 00-.544-.422l-5.32.567a.489.489 0 00-.345.196.494.494 0 00-.086.18z" fill="#e6e6e6"/></svg>