<svg width="48" height="48" viewBox="0 0 48 48" fill="none" xmlns="http://www.w3.org/2000/svg">
<path d="M25 11C25 10.4477 24.5523 10 24 10C23.4477 10 23 10.4477 23 11L25 11ZM23.2929 37.7071C23.6834 38.0976 24.3166 38.0976 24.7071 37.7071L31.0711 31.3431C31.4616 30.9526 31.4616 30.3195 31.0711 29.9289C30.6805 29.5384 30.0474 29.5384 29.6569 29.9289L24 35.5858L18.3431 29.9289C17.9526 29.5384 17.3195 29.5384 16.9289 29.9289C16.5384 30.3195 16.5384 30.9526 16.9289 31.3431L23.2929 37.7071ZM23 11L23 37L25 37L25 11L23 11Z" fill="#006D4F"/>
<circle cx="24" cy="24" r="23" stroke="#006D4F" stroke-width="2"/>
</svg>
