<svg data-name="Layer 1" xmlns="http://www.w3.org/2000/svg" width="939.002" height="727"><path d="M827.397 412.619l20.534-20.546a365.614 365.614 0 00-7.9-40.446l-11.703 5.924 10.514-10.519c-4.358-16.432-8.284-27.038-8.284-27.038s-41.383 42.144-62.771 91.564l13.252 34.84L762.908 424a147.917 147.917 0 00-5.085 17.88c-13.086 61.15-3.723 114.997 20.914 120.27s55.216-40.027 68.302-101.178c4.057-18.957 4.012-39.708 2.023-59.32z" fill="#e6e6e6"/><path d="M888.418 455.292l28.198-6.973a365.614 365.614 0 0014.144-38.708l-13.08-.978 14.437-3.57c4.764-16.32 6.885-27.428 6.885-27.428s-57.21 14.687-101.065 45.937l-6.663 36.674-3.945-28.545a147.918 147.918 0 00-13.595 12.679c-42.811 45.583-62.629 96.518-44.265 113.765s67.958-5.723 110.769-51.306c13.272-14.131 23.96-31.918 32.394-49.736zM619.297 201.977l6.928-54.37a689.875 689.875 0 00-58.486-51.244l-10.627 22.352 3.547-27.838c-25.475-19.494-43.579-30.79-43.579-30.79s-13.107 110.675 12.026 209.127l60 36.697-52.917-12.493a279.106 279.106 0 0013.054 32.555c51.067 106.374 127.206 175.93 170.062 155.355s36.2-123.485-14.867-229.859c-15.832-32.977-39.855-63.896-65.468-90.87z" fill="#e6e6e6"/><path d="M759.637 195.218l34.034-42.961a689.877 689.877 0 00-23.579-74.1L749.442 91.8l17.425-21.997c-11.73-29.856-21.39-48.884-21.39-48.884s-68.428 87.968-97.803 185.238l32.394 62.429-38.842-38.048a279.105 279.105 0 00-5.653 34.617C624.304 382.61 653.53 481.51 700.851 486.05s94.817-86.997 106.087-204.455c3.494-36.413-1.09-75.3-9.072-111.63zM132.235 209.967l-3.443-57.047a719.359 719.359 0 00-69.856-41.165l-6.555 24.96-1.763-29.208C20.738 92.473 0 84.41 0 84.41S8.026 200.343 52.863 296.34l68.588 25.966-56.64-2.541a291.037 291.037 0 0019.687 30.824c72.943 99.087 164.437 155.59 204.357 126.202s13.149-133.535-59.794-232.622c-22.613-30.718-53.22-57.74-84.692-80.411z" fill="#e6e6e6"/><path d="M274.71 175.836l26.542-50.615a719.358 719.358 0 00-38.523-71.347l-18.513 17.979 13.59-25.915C239.997 17.623 226.412 0 226.412 0s-53.056 103.394-64.294 208.748l45.292 57.682-47.172-31.452a291.035 291.035 0 00.92 36.563c11.224 122.527 60.34 218.189 109.703 213.666s80.281-107.515 69.057-230.042c-3.48-37.985-15.714-76.938-30.935-112.613z" fill="#e6e6e6"/><ellipse cx="423.193" cy="678" rx="35" ry="10" fill="#e6e6e6"/><ellipse cx="804.193" cy="717" rx="35" ry="10" fill="#e6e6e6"/><ellipse cx="877.193" cy="635" rx="35" ry="10" fill="#e6e6e6"/><ellipse cx="733.693" cy="608.429" rx="26.5" ry="7.571" fill="#e6e6e6"/><ellipse cx="159.693" cy="603.429" rx="17.5" ry="5.429" fill="#e6e6e6"/><ellipse cx="90.693" cy="664.429" rx="17.5" ry="5.429" fill="#e6e6e6"/><ellipse cx="90.693" cy="568.429" rx="17.5" ry="5.429" fill="#e6e6e6"/><path d="M840.065 585.954l-169.56-6-89.42 8.53-152.77 14.57-57.49 5.48-133.14 44.4a2.98 2.98 0 01-3.73-3.88l.01-.01 23.09-61.07-2.43-1.79-63.54-46.69-.34-.25-82.39-12.56a6.91 6.91 0 01-4.62-10.78l125.48-180.06 65.94-94.6 7.15-10.27 274.3-3.79 267.81 350.35a5.24 5.24 0 01-4.35 8.42z" fill="#003c3c"/><path opacity=".2" d="M366.56 245.587L254.623 586.185l-63.533-46.69 38.128-203.648 65.748-94.828.187.221 71.407 4.347z"/><path d="M266.642 376.065c-12.701 30.533-17.198 56.037-32.263 51.431-20.626-6.305 1.03-28.606 13.731-59.14s21.676-53.956 32.264-51.432c19.74 4.705-1.03 28.607-13.732 59.14z" fill="#3f3d56"/><path d="M295.42 314.947a15.388 15.388 0 00-15.413-15.363c-.348 0-.69.016-1.032.04l-14.521-1.792a15.356 15.356 0 00-5.192-.891c-.488 0-.97.027-1.447.072l-.56-.069-.015.137a15.388 15.388 0 00-3.251 29.698l-.03.277 1.428.16a15.406 15.406 0 003.925.5c.147 0 .292-.007.438-.011l14.844 1.662a15.346 15.346 0 005.462.992 15.506 15.506 0 002.08-.147l1.265.142.008-.371a15.39 15.39 0 0012.01-15.036z" fill="#003c3c"/><path d="M295.42 314.947a15.388 15.388 0 00-15.413-15.363c-.348 0-.69.016-1.032.04l-14.521-1.792a15.356 15.356 0 00-5.192-.891c-.488 0-.97.027-1.447.072l-.56-.069-.015.137a15.388 15.388 0 00-3.251 29.698l-.03.277 1.428.16a15.406 15.406 0 003.925.5c.147 0 .292-.007.438-.011l14.844 1.662a15.346 15.346 0 005.462.992 15.506 15.506 0 002.08-.147l1.265.142.008-.371a15.39 15.39 0 0012.01-15.036z" fill="#fff" opacity=".2"/><path d="M89.914 525.153l-1.778-.933c45.525-86.769 174.285-272.161 175.58-274.024l1.648 1.146c-1.294 1.862-129.984 187.152-175.45 273.81zM229.362 655.188l-1.936-.528c.937-3.448 94.185-345.49 126.56-403.19l1.75.983C323.483 309.938 230.3 651.742 229.363 655.188zM852.307 588.874c-49.712-81.892-237.447-335.517-239.338-338.07l1.613-1.194c1.891 2.553 189.681 256.252 239.44 338.223z" fill="#3f3d56"/><ellipse cx="356.233" cy="741.76" rx="7.025" ry="9.032" transform="rotate(-.092 -53474.315 81811.965)" fill="#3f3d56"/><ellipse cx="220.854" cy="606.501" rx="7.025" ry="9.032" transform="rotate(-.092 -53609.688 81676.71)" fill="#3f3d56"/><ellipse cx="984.653" cy="670.85" rx="7.025" ry="9.032" transform="rotate(-.092 -52845.918 81741.06)" fill="#3f3d56"/><path d="M255.915 260.158l378.621 4.057A117.212 117.212 0 00517.27 148l-144.496.233c-60.439.097-111.615 47.361-116.507 107.602z" fill="#3f3d56"/><path d="M588.585 385.314h-138.38a12.72 12.72 0 00-12.73 12.88l.12 10.12 1.23 108.34.02 2.09.04 3.45.04 3.37.23 20.31a12.739 12.739 0 0012.46 12.59c.34 0 .69-.01 1.04-.03l32.86-2 47.54-2.9 16.78-1.02 3.74-.23 26.15-1.59h.01l9.62-.59a12.75 12.75 0 0011.96-12.71v-139.35a12.744 12.744 0 00-12.73-12.73z" opacity=".2"/><path d="M617.082 367.62a3.401 3.401 0 00-2.52 1.444l-15.247.024v-4.044a12.744 12.744 0 00-12.73-12.73h-138.38a12.72 12.72 0 00-12.73 12.88l.05 4.158-9.834.015a3.043 3.043 0 00-2.065-.956c-3.446.005-6.228 7.532-6.213 16.811s2.82 16.797 6.267 16.792a3.766 3.766 0 002.889-1.925l188.043-.303a3.401 3.401 0 002.524 1.436c3.446-.005 6.228-7.532 6.213-16.811s-2.82-16.797-6.267-16.792z" fill="#003c3c"/><path d="M617.082 367.62a3.401 3.401 0 00-2.52 1.444l-15.247.024v-4.044a12.744 12.744 0 00-12.73-12.73h-138.38a12.72 12.72 0 00-12.73 12.88l.05 4.158-9.834.015a3.043 3.043 0 00-2.065-.956c-3.446.005-6.228 7.532-6.213 16.811s2.82 16.797 6.267 16.792a3.766 3.766 0 002.889-1.925l188.043-.303a3.401 3.401 0 002.524 1.436c3.446-.005 6.228-7.532 6.213-16.811s-2.82-16.797-6.267-16.792z" fill="#fff" opacity=".2"/><path d="M601.59 580.058a8.133 8.133 0 01-12.77-2.182l-7.522-14.445 2.993-6.485 16.128 10.322a8.133 8.133 0 011.172 12.79z" fill="#ffb8b8"/><path d="M634.088 664.335a6.736 6.736 0 00-6.79-6.019 6.82 6.82 0 00-6.663 5.166l-6.662 32.354a13.088 13.088 0 00-.34 2.884c0 7.296 6.105 12.366 13.665 12.366s13.67-5.07 13.67-12.366a13.237 13.237 0 00-.473-3.46zM684.486 678.806a15.294 15.294 0 00-2.178-1.593l-25.453-17.787c-2.478-1.556-5.125-1.512-7.047.366a4.953 4.953 0 00-.732 6.296l19.219 25.26a13.388 13.388 0 001.464 1.716c3.331 3.723 10.719 3.928 14.779 0 4.005-3.993 3.957-11.11-.052-14.258zM703.614 652.455h-25.78a3.135 3.135 0 00-3.25 2.988 3.408 3.408 0 002.533 3.353l24.319 7.523c3.532.824 8.291-2.325 8.291-6.256 0-5.001-2.782-7.608-6.113-7.608zM580.949 655.428a3.2 3.2 0 00-3.46-2.987H551.71c-3.247 0-5.985 3.507-5.985 7.438s4.62 7.263 8.163 6.44l24.685-7.523a3.097 3.097 0 002.376-3.368zM598.641 659.455l-25.46 17.71a11.84 11.84 0 00-2.197 1.593 9.639 9.639 0 00-.494 13.623q.238.255.494.493a10.759 10.759 0 0014.775 0 11.258 11.258 0 001.464-1.713l19.234-25.117a4.828 4.828 0 00-.732-6.245 5.491 5.491 0 00-7.084-.344zM638.245 624.843a2.735 2.735 0 00.472-1.47c0-3.101-6.11-5.256-13.67-5.256s-13.665 2.155-13.665 5.255a2.617 2.617 0 00.34 1.226l6.663 13.75c.764 1.298 3.516 2.205 6.663 2.196 3.547 0 6.494-1.122 6.79-2.558zM682.288 625.776c-4.06-1.67-11.448-1.582-14.779 0a11.986 11.986 0 00-1.464.73l-19.22 10.735c-1.306.85-.998 1.975.733 2.676a11.5 11.5 0 007.047.155l25.453-7.56a21.702 21.702 0 002.179-.676c4.008-1.338 4.056-4.362.05-6.06zM707.478 639.801c0-1.67-4.76-3.008-8.292-2.658l-24.319 3.197c-1.453.204-2.533.677-2.533 1.425s1.585 1.27 3.25 1.27h25.78c3.331 0 6.114-1.108 6.114-3.234zM576.323 640.34l-24.685-3.197c-3.543-.35-8.163 1.065-8.163 2.736s2.738 3.162 5.985 3.162h25.78c1.793 0 3.459-.492 3.459-1.27s-.769-1.227-2.376-1.431zM603.475 639.913c1.801-.71 2.013-1.786.732-2.654l-19.234-10.674a10.097 10.097 0 00-1.464-.728 22.485 22.485 0 00-14.775 0q-.255.101-.493.21c-3.626 1.656-3.405 4.248.493 5.79a16.885 16.885 0 002.197.676l25.46 7.527a11.634 11.634 0 007.084-.146z" fill="#3f3d56"/><path d="M677.479 622.617c0 39.763-22.16 40.498-49.498 40.498s-72.218-7.866-49.497-40.498c23.963-34.418 65.074-100.02 49.497-103.495 0 0 49.498 63.732 49.498 103.495z" fill="#f9a825"/><path d="M645.414 647.085c0 15.739-8.772 16.03-19.593 16.03s-28.587-3.114-19.593-16.03c9.486-13.624 25.759-39.592 19.593-40.967 0 0 19.593 25.227 19.593 40.966z" fill="#ff6584" opacity=".5"/><path d="M601.315 530.284v7.11a12.75 12.75 0 01-11.96 12.71l-136.7 8.33a12.722 12.722 0 01-13.5-12.56l-.33-29.22 82.69-1.34z" fill="#3f3d56"/><path d="M579.024 565.502l-61.671-32.03a2.258 2.258 0 01-1.15-1.46l-13.379-53.918a12.942 12.942 0 018.286-15.332l3.223-1.128a5.562 5.562 0 017.196 3.76l13.186 47.47a2.258 2.258 0 00.735 1.134l50.248 41.634a2.258 2.258 0 01.423 3.014l-4.193 6.128a2.258 2.258 0 01-2.904.728z" fill="#e6e6e6"/><path d="M538.397 481.62c-29.911-15.747-61.221-23.655-94.78-18.956 10.115-17.144 17.629-32.995 17.126-44.862a23.357 23.357 0 019.164-19.898 28.355 28.355 0 0116.899-5.577 23.221 23.221 0 0117.2-.684 18.086 18.086 0 0110.49 10.388c1.147 2.78 3.617 5.215 7.2 7.36a20.205 20.205 0 017.796 8.145c2.36 4.697 2.523 9.425-.57 14.2 11.582 12.167 11.614 30.45 9.475 49.884z" fill="#2f2e41"/><circle cx="495.995" cy="421.26" r="20.952" fill="#ffb8b8"/><path d="M505.972 466.655l-24.443 2.494c1.311-14.291 1.827-27.48 0-37.413h24.443c-4.642 15.816-4.235 27.09 0 34.919z" fill="#ffb8b8"/><path d="M519.065 466.114q-.03 3.285-.14 6.5c-.51 15.34-2.44 29.15-7.7 39.32a35.335 35.335 0 01-3.81 5.95.175.175 0 01-.04.05 3.864 3.864 0 01-.33.4 28.296 28.296 0 01-3.57 3.69l-10.01 10.5-.46.48-2.92 1.95-15.04 10.02-36.12-19.41-.04-3.37-.04-3.45c8.03-11.38 13.04-26.18 16.22-43.03.87-4.61 1.61-9.38 2.24-14.28.43-3.39.81-6.85 1.14-10.36a5.535 5.535 0 011.05-2.99.01.01 0 01.01-.01c1.54-1.96 4.6-1.92 8.3-2.12 5.19-.28 10.3-2.97 14.89-.43a2.695 2.695 0 01.33.18l13.47 14.96 6.19-6.67.29-.31 12.75 5.46a5.887 5.887 0 013.34 6.97z" fill="#e6e6e6"/><path d="M490.635 539.644a20.23 20.23 0 01-1.42 7.45l-3.7 9.34-32.86 2c-.35.02-.7.03-1.04.03a12.739 12.739 0 01-12.46-12.59l-.23-20.31-.04-3.37 11.96 5.07 11.66-6.26a17.45 17.45 0 011.95-.7 18.754 18.754 0 012.64-.63h.01c.43-.07.86-.13 1.29-.17a20.211 20.211 0 0113.91 3.77 19.945 19.945 0 015.71 6.42 4.745 4.745 0 01.29.54 19.512 19.512 0 011.78 4.72 20.458 20.458 0 01.55 4.69z" fill="#2f2e41"/><path opacity=".2" d="M481.279 479.874l4.371 20.055 26.557 22.846-23.445-23.944-7.483-18.957zM456.836 489.352l7.981 32.425 23.446 8.481-21.949-10.975-9.478-29.931z"/><path d="M521.187 422.507c-15.442-7.104-32.9-9.13-48.388-1.496l1.995-17.959 33.922-5.487z" fill="#2f2e41"/><path fill="#3f3d56" d="M645.315 580.314l-113.547-19.506 1.392-6.86 112.155 26.366z"/><path d="M550.709 565.093a8.133 8.133 0 01-12.77-2.183l-7.524-14.444 2.993-6.485 16.129 10.322a8.133 8.133 0 011.172 12.79z" fill="#ffb8b8"/><path d="M528.142 550.537l-61.671-32.03a2.258 2.258 0 01-1.151-1.46l-13.378-53.918a12.942 12.942 0 018.286-15.333l3.223-1.128a5.562 5.562 0 017.196 3.761l13.186 47.47a2.258 2.258 0 00.735 1.134l50.248 41.634a2.258 2.258 0 01.423 3.013l-4.193 6.128a2.258 2.258 0 01-2.904.729zM633.076 583.865a2.105 2.105 0 002.467-1.645l1.138-5.695a2.096 2.096 0 00-1.645-2.466l-16.481-3.295a2.101 2.101 0 00-2.467 1.645l-1.138 5.694a2.096 2.096 0 001.645 2.467z" fill="#e6e6e6"/></svg>